<?xml version="1.0" standalone="no"?>
<!DOCTYPE svg PUBLIC "-//W3C//DTD SVG 20010904//EN"
 "http://www.w3.org/TR/2001/REC-SVG-20010904/DTD/svg10.dtd">
<svg version="1.0" xmlns="http://www.w3.org/2000/svg"
 width="500.000000pt" height="500.000000pt" viewBox="0 0 500.000000 500.000000"
 preserveAspectRatio="xMidYMid meet">

<g transform="translate(0.000000,500.000000) scale(0.100000,-0.100000)"
fill="#000000" stroke="none">
<path d="M1700 3593 c1 -85 1 -87 14 -51 7 20 22 51 34 69 l21 33 -21 18 c-41
35 -48 25 -48 -69z"/>
<path d="M3343 3668 c-13 -17 -10 -58 8 -99 l14 -34 7 45 c11 73 9 100 -6 100
-7 0 -18 -6 -23 -12z"/>
<path d="M1645 3120 c-3 -5 -4 -14 -1 -19 4 -5 0 -12 -6 -14 -10 -4 -10 -6 0
-6 8 -1 10 -6 6 -13 -6 -10 -5 -10 8 -1 8 7 17 10 21 7 3 -3 4 2 2 13 -1 10
-8 17 -15 15 -8 -2 -10 3 -7 13 7 17 2 20 -8 5z"/>
<path d="M2354 3105 c-19 -14 -18 -15 6 -34 32 -26 79 -36 93 -21 9 8 4 18
-21 41 -37 33 -50 35 -78 14z"/>
<path d="M2646 3091 c-48 -51 -4 -71 60 -28 33 23 33 25 16 40 -26 24 -44 21
-76 -12z"/>
<path d="M3389 3063 c-13 -16 -12 -17 4 -4 16 13 21 21 13 21 -2 0 -10 -8 -17
-17z"/>
<path d="M3218 2113 c-164 -166 -219 -227 -228 -256 -7 -21 -9 -41 -6 -45 10
-10 436 419 452 455 15 36 18 63 6 63 -4 0 -105 -98 -224 -217z"/>
<path d="M1630 2303 c1 -10 6 -28 13 -41 15 -27 449 -463 455 -458 2 3 -2 22
-8 43 -9 29 -65 91 -228 256 -119 119 -220 217 -224 217 -4 0 -8 -8 -8 -17z"/>
<path d="M2687 2232 c-19 -21 -22 -32 -7 -32 10 0 34 39 27 46 -2 2 -11 -4
-20 -14z"/>
<path d="M1705 2055 c3 -11 12 -39 18 -63 9 -35 38 -71 162 -198 l150 -156 41
4 42 3 -210 215 c-116 118 -207 206 -203 195z"/>
<path d="M3155 1850 l-210 -210 51 0 51 0 144 151 c79 83 149 160 155 172 11
21 28 97 22 97 -2 0 -98 -94 -213 -210z"/>
<path d="M1804 1717 c16 -65 25 -77 56 -77 16 0 30 3 30 6 0 3 -21 26 -46 51
-42 41 -46 43 -40 20z"/>
<path d="M3220 1684 l-45 -45 39 3 c36 3 40 6 51 46 7 23 10 42 6 42 -4 0 -27
-21 -51 -46z"/>
</g>
</svg>
