<?xml version="1.0" standalone="no"?>
<!DOCTYPE svg PUBLIC "-//W3C//DTD SVG 20010904//EN"
 "http://www.w3.org/TR/2001/REC-SVG-20010904/DTD/svg10.dtd">
<svg version="1.0" xmlns="http://www.w3.org/2000/svg"
 width="1536.000000pt" height="1536.000000pt" viewBox="0 0 1536.000000 1536.000000"
 preserveAspectRatio="xMidYMid meet">

<g transform="translate(0.000000,1536.000000) scale(0.100000,-0.100000)"
fill="#F8FAFC" stroke="none">
<path d="M7523 10818 c-151 -135 -372 -328 -537 -472 -50 -43 -120 -104 -156
-136 -107 -94 -333 -293 -551 -484 -244 -215 -462 -408 -469 -416 -3 -3 -95
-84 -205 -180 -276 -241 -264 -230 -320 -281 -61 -56 -312 -271 -418 -358
l-77 -64 -2 -851 -3 -851 31 -30 c17 -16 135 -104 262 -195 128 -91 319 -228
425 -305 367 -266 690 -501 960 -698 150 -108 316 -229 370 -268 54 -39 100
-69 103 -66 3 2 11 87 19 188 19 246 61 763 80 974 8 94 33 391 55 660 22 270
44 508 48 529 l7 39 85 -100 c47 -54 157 -185 245 -290 88 -105 165 -194 172
-197 6 -2 36 35 69 87 117 186 322 488 327 480 2 -4 0 -87 -4 -183 -17 -360
-40 -1111 -35 -1119 3 -4 67 -8 143 -7 l138 1 7 235 c3 129 11 379 18 555 18
532 39 1309 34 1314 -20 20 -188 -137 -284 -264 -75 -101 -419 -602 -427 -622
-3 -7 -10 -13 -17 -12 -11 0 -381 418 -374 423 2 2 53 29 113 61 347 183 1358
736 1378 753 16 14 17 12 17 -24 0 -21 -7 -140 -15 -264 -19 -289 -59 -956
-85 -1415 -11 -198 -21 -379 -23 -402 l-2 -42 140 -3 c77 -2 141 -3 141 -3 1
0 7 97 13 215 7 118 14 247 16 285 16 240 25 398 31 526 l7 146 360 7 c198 4
362 4 366 1 3 -4 7 -91 9 -193 2 -103 4 -187 5 -187 1 0 64 1 139 3 l137 3 0
330 1 330 -270 -3 c-149 -2 -270 -1 -270 0 0 5 67 65 167 150 85 73 77 41 93
387 6 132 15 303 20 380 5 77 11 187 15 245 6 124 14 241 21 328 4 53 2 62
-12 62 -18 0 -227 -107 -464 -237 -80 -44 -181 -99 -225 -123 -44 -23 -93 -50
-110 -60 -16 -10 -59 -33 -95 -52 -153 -82 -209 -113 -270 -148 -36 -20 -110
-61 -165 -90 -55 -29 -260 -141 -455 -248 -195 -107 -377 -207 -405 -222 -27
-15 -151 -83 -275 -150 -124 -68 -259 -141 -300 -163 -109 -58 -106 -54 -114
-160 -14 -182 -66 -844 -76 -962 -33 -377 -83 -958 -92 -1075 -6 -74 -13 -140
-17 -146 -4 -7 -103 59 -257 172 l-252 184 -7 1022 c-4 563 -8 1126 -9 1251
l-1 228 265 115 c146 63 279 121 295 129 17 7 254 110 527 229 701 304 1707
754 1831 819 l29 15 -34 26 c-18 14 -85 65 -150 113 -64 49 -158 120 -210 159
-51 40 -151 116 -223 171 -71 54 -238 182 -370 284 -315 243 -441 339 -448
339 -2 0 -72 -60 -154 -132z m354 -370 c405 -313 592 -455 641 -488 28 -19 52
-38 52 -43 0 -4 -12 -12 -27 -18 -16 -6 -143 -61 -283 -124 -368 -163 -741
-327 -914 -401 -83 -36 -182 -79 -221 -96 -115 -51 -124 -55 -270 -117 -77
-33 -248 -108 -380 -166 -132 -59 -319 -142 -415 -184 l-175 -77 3 -689 c1
-380 5 -937 8 -1239 4 -353 3 -547 -3 -545 -9 4 -115 79 -328 234 -45 33 -175
125 -288 205 l-206 145 0 721 -1 722 103 88 c56 48 125 108 152 133 28 25 79
71 115 102 121 104 425 371 824 724 87 77 182 160 211 185 29 25 113 98 186
164 251 223 441 391 499 441 167 144 267 234 385 343 72 67 135 120 142 119 6
-1 92 -64 190 -139z m1579 -1430 c-8 -54 -42 -458 -52 -600 l-6 -108 -172
-152 c-94 -84 -173 -155 -176 -158 -3 -3 -18 -16 -34 -30 l-28 -25 6 115 c4
63 13 207 21 320 8 113 17 262 21 331 l7 127 91 48 c50 26 143 76 206 111 63
35 117 63 119 63 2 0 1 -19 -3 -42z"/>
<path d="M10189 8968 c-8 -76 9 -1170 25 -1579 5 -131 7 -125 -70 -191 -46
-38 -602 -526 -630 -553 -6 -5 -91 -80 -190 -165 -98 -85 -204 -178 -234 -206
-30 -28 -165 -146 -300 -264 -135 -117 -261 -227 -280 -244 -19 -17 -94 -83
-165 -146 -72 -64 -164 -145 -206 -180 -41 -36 -245 -213 -453 -395 -207 -181
-393 -344 -413 -362 l-37 -31 29 -39 c25 -32 120 -147 146 -177 4 -5 68 45
141 111 73 65 311 275 528 465 217 190 517 452 665 583 149 131 350 308 448
394 98 86 227 198 285 250 59 51 150 131 202 176 52 45 176 154 275 241 100
88 257 226 350 308 94 82 175 156 181 165 11 16 7 395 -14 1376 l-7 340 -130
67 c-71 37 -133 67 -137 68 -5 0 -9 -6 -9 -12z"/>
</g>
</svg>
